<svg xmlns="http://www.w3.org/2000/svg" xmlns:xlink="http://www.w3.org/1999/xlink" version="1.1" x="0px" y="0px" viewBox="0 0 32 40" enable-background="new 0 0 32 32" xml:space="preserve">



<path d="M24.411,24.22c0.396,0,0.719-0.322,0.719-0.721V5.241c0-0.398-0.322-0.721-0.719-0.721H10.784V24.22H22.12  c-0.16,0.482-0.25,1.094-0.135,1.82H8.372c0.139-0.51,0.547-0.945,0.973-1.275V4.792C8.465,5.265,6.622,6.509,6.899,8.554  c0,0,0,17.361,0,17.766s0.313,1.158,1.063,1.158s16.449,0.002,16.449,0.002c0.396,0,0.719-0.322,0.719-0.719  c0-0.398-0.322-0.721-0.719-0.721h-0.959c-0.207-0.885,0.051-1.512,0.24-1.82H24.411z M19.961,16.679  c-0.318,0.238-0.77,0.174-1.008-0.145s-0.174-0.77,0.143-1.008c0.832-0.623,1.025-0.982,1.043-1.172  c0.035-0.379-0.588-1.051-1.139-1.645c-0.43-0.465-0.912-0.941-1.34-1.352v5.93c0,0.047-0.006,0.258-0.008,0.318  c-0.023,0.898-0.75,1.742-1.848,2.041c-0.254,0.07-0.514,0.105-0.77,0.105c-1.012,0-1.842-0.553-2.066-1.373  c-0.146-0.537-0.014-1.127,0.369-1.615c0.338-0.434,0.846-0.76,1.426-0.918c0.256-0.07,0.514-0.105,0.77-0.105  c0.242,0,0.473,0.033,0.688,0.092V9.708c0-0.283,0.166-0.539,0.426-0.656c0.258-0.117,0.559-0.07,0.771,0.119  c0.061,0.053,1.5,1.33,2.639,2.561c0.828,0.893,1.607,1.734,1.516,2.752C21.508,15.214,21.01,15.892,19.961,16.679z"/>
</svg>